<svg width="40" height="29" viewBox="0 0 40 29" fill="none" xmlns="http://www.w3.org/2000/svg">
<path d="M8.9094 0H14.4547C14.4547 0 14.4547 5.4375 20 5.4375C25.5453 5.4375 25.5453 0 25.5453 0H31.0906L39.3032 3.22081C39.5762 3.32802 39.7947 3.53719 39.9105 3.80232C40.0262 4.06744 40.0299 4.36681 39.9206 4.63456L36.915 12.0042C36.8326 12.2059 36.6906 12.3788 36.507 12.5006C36.3235 12.6224 36.107 12.6875 35.8854 12.6875H31.0906V27.9125C31.0906 28.2009 30.9738 28.4775 30.7658 28.6815C30.5578 28.8854 30.2757 29 29.9815 29H10.0185C9.72432 29 9.44223 28.8854 9.23424 28.6815C9.02625 28.4775 8.9094 28.2009 8.9094 27.9125V12.6875H4.11457C3.89297 12.6875 3.67646 12.6224 3.49295 12.5006C3.30944 12.3788 3.16735 12.2059 3.08499 12.0042L0.0794387 4.63456C-0.0298743 4.36681 -0.0262417 4.06744 0.0895378 3.80232C0.205317 3.53719 0.42376 3.32802 0.696815 3.22081L8.9094 0Z" fill="#BE5454"/>
</svg>
